<?xml version="1.0" encoding="utf-8"?>
<!-- Generator: Adobe Illustrator 18.1.0, SVG Export Plug-In . SVG Version: 6.00 Build 0)  -->
<svg version="1.1" id="Layer_1" xmlns="http://www.w3.org/2000/svg" xmlns:xlink="http://www.w3.org/1999/xlink" x="0px" y="0px"
	 viewBox="0 0 371.1 70.7" enable-background="new 0 0 371.1 70.7" xml:space="preserve">
<g>
	<polygon fill="#FFFFFF" points="24.4,9.4 13.1,2.7 1.8,9.4 1.8,68.3 60.6,68.3 60.6,9.4 	"/>
	<path d="M28.4,58.6c-10.3-3.7-21.3-1.5-26.6,0v9.7h58.8v-0.2c-10-0.8-18.2-4-26-7.1C32.5,60.2,30.4,59.4,28.4,58.6z"/>
	<g>
		<path fill="#006897" d="M24.4,9.4L13.1,2.7L1.8,9.4v28.4c2.8-0.6,6-1,9.4-1.3V17.7l13.3-8l13.3,8v22.9c1.4,0.5,2.8,1.1,4.2,1.6
			c6.3,2.5,12.1,4.8,18.6,5.5V9.4H24.4z"/>
	</g>
	<g>
		<path fill="#006897" d="M102,38.4c-2,1.5-4.1,2.6-6.4,3.3c-2.2,0.7-4.7,1.1-7.4,1.1c-2.6,0-4.9-0.4-7.1-1.2
			c-2.2-0.8-4-1.9-5.6-3.4c-1.7-1.6-2.9-3.4-3.8-5.5c-0.9-2.1-1.3-4.4-1.3-6.8c0-5.1,1.7-9.2,5.1-12.3c3.4-3.1,7.9-4.7,13.5-4.7
			c2,0,4.1,0.2,6.1,0.7s4,1.2,6.1,2.2V19c-2.2-1.1-4.2-1.9-6.2-2.5c-2-0.5-3.8-0.8-5.5-0.8c-3.3,0-5.9,0.9-7.8,2.7
			c-1.9,1.8-2.8,4.3-2.8,7.4c0,3.1,0.9,5.5,2.7,7.3c1.8,1.8,4.2,2.7,7.2,2.7c0.8,0,1.6-0.1,2.4-0.3c0.8-0.2,1.6-0.4,2.4-0.8v-4.1
			h-4.5v-6.2H102V38.4z"/>
		<path fill="#006897" d="M106.1,25.9c0-2.4,0.4-4.7,1.3-6.8c0.9-2.1,2.1-3.9,3.8-5.5c1.7-1.6,3.5-2.7,5.6-3.5
			c2.1-0.8,4.4-1.1,7-1.1c2.6,0,5,0.4,7.1,1.2c2.1,0.8,4,1.9,5.7,3.5c1.7,1.6,3,3.5,3.8,5.5c0.9,2.1,1.3,4.3,1.3,6.8
			c0,2.4-0.4,4.7-1.3,6.7c-0.9,2.1-2.1,3.9-3.8,5.5c-1.7,1.6-3.6,2.7-5.7,3.5c-2.1,0.8-4.5,1.2-7,1.2c-2.6,0-4.9-0.4-7-1.2
			c-2.1-0.8-4-2-5.7-3.5c-1.7-1.6-3-3.4-3.8-5.5C106.5,30.5,106.1,28.3,106.1,25.9z M114.5,25.9c0,2.9,0.9,5.3,2.6,7.2
			c1.8,1.9,4,2.8,6.7,2.8c2.7,0,5-0.9,6.7-2.8c1.8-1.9,2.6-4.3,2.6-7.2c0-2.9-0.9-5.4-2.6-7.2c-1.8-1.9-4-2.8-6.7-2.8
			c-2.7,0-5,0.9-6.7,2.8C115.4,20.5,114.5,22.9,114.5,25.9z"/>
		<path fill="#006897" d="M177.3,9.4v18.8c0,4.6-1.4,8.2-4.1,10.7c-2.7,2.6-6.5,3.9-11.4,3.9c-4.9,0-8.7-1.3-11.4-3.9
			c-2.7-2.6-4.1-6.2-4.1-10.7V9.4h8.2v18.4c0,2.6,0.6,4.6,1.9,6s3.1,2.1,5.4,2.1c2.4,0,4.2-0.7,5.4-2.1c1.2-1.4,1.9-3.4,1.9-6V9.4
			H177.3z"/>
		<path fill="#006897" d="M193,42.5L179.7,9.4h8.6l6.4,17.9l6.4-17.9h5.5l6.4,17.9l6.3-17.9h8.6l-13.3,33.1h-3.4L203.9,22l-7.5,20.5
			H193z"/>
		<path fill="#006897" d="M230.5,42.2V9.4h21.9v6h-13.7v6.7h13.1v6.1h-13.1v7.8h14.1v6.1H230.5z"/>
	</g>
	<g>
		<path d="M256.7,39.7v-6.2c1.5,1.7,2.9,2.9,4.3,3.7c1.4,0.8,2.8,1.1,4.3,1.1c1.6,0,2.9-0.4,3.8-1.1s1.4-1.8,1.4-3.1
			c0-1.1-0.3-2-0.9-2.8c-0.6-0.8-2.1-2-4.5-3.5c-3.7-2.4-6-4.2-7-5.6c-0.9-1.3-1.4-2.9-1.4-4.7c0-2.5,0.9-4.6,2.7-6.3
			c1.8-1.6,4.1-2.4,7-2.4c1.3,0,2.5,0.2,3.7,0.6c1.2,0.4,2.5,0.9,3.7,1.7v5.3c-1.4-1.2-2.8-2-4-2.5c-1.2-0.5-2.4-0.8-3.7-0.8
			c-1.5,0-2.7,0.4-3.6,1.1c-0.9,0.7-1.4,1.7-1.4,2.8c0,1.6,1.9,3.6,5.8,6l0.7,0.4c3.1,2,5.2,3.7,6.2,5.2c1,1.5,1.5,3.3,1.5,5.5
			c0,2.5-0.9,4.6-2.7,6.2s-4.1,2.4-7,2.4c-1.8,0-3.4-0.2-4.8-0.8C259.4,41.5,258,40.8,256.7,39.7z"/>
		<path d="M289.4,42.2V13.7h-12V9.4h28.8v4.3h-12v28.5H289.4z"/>
		<path d="M305.4,42.2l14.2-32.8h3.4l14.4,32.8h-4.9l-4.2-9.7h-14l-4.2,9.7H305.4z M316.2,28.3h10.2l-5.2-11.8L316.2,28.3z"/>
		<path d="M351.9,9.4c2.4,0,4.5,0.2,6.2,0.7c1.7,0.5,3.3,1.2,4.8,2.2c2.2,1.5,3.9,3.4,5.1,5.8c1.2,2.4,1.8,4.9,1.8,7.8
			c0,2.8-0.6,5.4-1.8,7.8c-1.2,2.4-2.9,4.3-5.1,5.8c-1.4,1-3,1.7-4.8,2.2c-1.8,0.5-3.9,0.7-6.3,0.7h-12V9.4H351.9z M351.9,13.9h-7.4
			v23.9h7.4c4,0,7.2-1.1,9.5-3.2s3.5-5,3.5-8.7c0-3.7-1.2-6.6-3.5-8.8C359.1,15,355.9,13.9,351.9,13.9z"/>
	</g>
	<g>
		<path d="M83.9,53.1v1.2h-8.1v5.4H83V61h-7.2v7.1h-1.4v-15H83.9z"/>
		<path d="M91.5,53.1v15h-1.4v-15H91.5z"/>
		<path d="M100.4,53.1l8.7,12.7h0V53.1h1.4v15h-1.6l-8.7-12.7h0v12.7h-1.4v-15H100.4z"/>
		<path d="M123.9,53.1l5.9,15h-1.5l-1.8-4.7h-6.8l-1.8,4.7h-1.5l6-15H123.9z M125.9,62.2l-2.9-7.7l-3,7.7H125.9z"/>
		<path d="M137,53.1l8.7,12.7h0V53.1h1.4v15h-1.6l-8.7-12.7h0v12.7h-1.4v-15H137z"/>
		<path d="M164.8,56.1c-0.3-0.5-0.6-0.8-1-1.1c-0.4-0.3-0.9-0.5-1.4-0.7s-1-0.2-1.6-0.2c-1,0-1.8,0.2-2.6,0.6s-1.3,0.9-1.8,1.5
			c-0.5,0.6-0.8,1.3-1,2.1c-0.2,0.8-0.3,1.6-0.3,2.4c0,0.8,0.1,1.6,0.3,2.4c0.2,0.8,0.6,1.5,1,2.1c0.5,0.6,1,1.1,1.8,1.5
			s1.6,0.6,2.6,0.6c0.7,0,1.3-0.1,1.9-0.4c0.6-0.3,1-0.6,1.4-1c0.4-0.4,0.7-0.9,1-1.5c0.3-0.6,0.4-1.2,0.5-1.9h1.4
			c-0.1,0.9-0.3,1.8-0.7,2.5s-0.8,1.4-1.3,1.9c-0.5,0.5-1.2,0.9-1.9,1.2s-1.5,0.4-2.4,0.4c-1.2,0-2.2-0.2-3.1-0.6s-1.6-1-2.2-1.7
			c-0.6-0.7-1-1.5-1.3-2.5c-0.3-0.9-0.4-1.9-0.4-3s0.1-2,0.4-3c0.3-0.9,0.7-1.8,1.3-2.5s1.3-1.3,2.2-1.7c0.9-0.4,1.9-0.6,3.1-0.6
			c0.7,0,1.4,0.1,2.1,0.3s1.3,0.5,1.8,0.9c0.6,0.4,1,0.9,1.4,1.5c0.4,0.6,0.6,1.3,0.7,2.1h-1.4C165.3,57.1,165.1,56.6,164.8,56.1z"
			/>
		<path d="M175,53.1v15h-1.4v-15H175z"/>
		<path d="M192.8,53.1v1.2h-8.9v5.4h8.4V61h-8.4v5.9h9v1.2h-10.5v-15H192.8z"/>
		<path d="M200.6,53.1v13.8h8.4v1.2h-9.8v-15H200.6z"/>
		<path d="M225,53.1v1.2h-8.9v5.4h8.4V61h-8.4v5.9h9v1.2h-10.5v-15H225z"/>
		<path d="M246.7,53.1c2.3,0.1,4,0.7,5.2,1.9c1.2,1.2,1.7,3.1,1.7,5.6s-0.6,4.4-1.7,5.6c-1.2,1.2-2.9,1.9-5.2,1.9h-5.2v-15H246.7z
			 M246,66.9c1.1,0,2-0.1,2.8-0.3c0.8-0.2,1.4-0.6,1.9-1.1c0.5-0.5,0.9-1.2,1.1-2c0.2-0.8,0.4-1.8,0.4-2.9s-0.1-2.1-0.4-2.9
			s-0.6-1.4-1.1-2c-0.5-0.5-1.1-0.9-1.9-1.1c-0.8-0.2-1.7-0.3-2.8-0.3h-3v12.6H246z"/>
		<path d="M261.7,53.1v15h-1.4v-15H261.7z"/>
		<path d="M279.4,53.1v1.2h-8.9v5.4h8.4V61h-8.4v5.9h9v1.2h-10.5v-15H279.4z"/>
		<path d="M287.4,53.1l8.7,12.7h0V53.1h1.4v15H296l-8.7-12.7h0v12.7h-1.4v-15H287.4z"/>
		<path d="M305.9,65.1c0.3,0.5,0.6,0.9,1,1.2c0.4,0.3,1,0.5,1.6,0.7c0.6,0.1,1.2,0.2,1.9,0.2c0.4,0,0.8-0.1,1.3-0.2
			c0.5-0.1,0.9-0.3,1.3-0.5c0.4-0.2,0.7-0.6,1-0.9c0.3-0.4,0.4-0.9,0.4-1.4c0-0.4-0.1-0.8-0.3-1.1c-0.2-0.3-0.4-0.6-0.7-0.8
			s-0.6-0.4-1-0.5c-0.4-0.1-0.7-0.2-1.1-0.3l-3.3-0.8c-0.4-0.1-0.9-0.3-1.3-0.4c-0.4-0.2-0.8-0.4-1.1-0.7c-0.3-0.3-0.6-0.6-0.7-1
			c-0.2-0.4-0.3-0.9-0.3-1.5c0-0.4,0.1-0.8,0.2-1.3c0.1-0.5,0.4-1,0.8-1.4s0.9-0.8,1.6-1.1s1.5-0.5,2.6-0.5c0.7,0,1.4,0.1,2.1,0.3
			c0.7,0.2,1.3,0.5,1.8,0.9s0.9,0.9,1.2,1.5c0.3,0.6,0.5,1.3,0.5,2h-1.4c0-0.6-0.2-1.1-0.4-1.5c-0.2-0.4-0.5-0.8-0.9-1.1
			c-0.4-0.3-0.8-0.5-1.3-0.7c-0.5-0.1-1-0.2-1.5-0.2c-0.5,0-1,0.1-1.4,0.2c-0.5,0.1-0.9,0.3-1.2,0.5c-0.3,0.2-0.6,0.5-0.8,0.9
			S306,56.4,306,57c0,0.4,0.1,0.7,0.2,0.9c0.1,0.3,0.3,0.5,0.5,0.7c0.2,0.2,0.5,0.3,0.7,0.4s0.6,0.2,0.9,0.3l3.7,0.9
			c0.5,0.1,1,0.3,1.5,0.5c0.5,0.2,0.9,0.5,1.2,0.8c0.4,0.3,0.6,0.7,0.8,1.1c0.2,0.4,0.3,1,0.3,1.6c0,0.2,0,0.4-0.1,0.7
			c0,0.3-0.1,0.6-0.3,0.9c-0.1,0.3-0.3,0.6-0.6,1c-0.2,0.3-0.6,0.6-1,0.9c-0.4,0.3-1,0.5-1.6,0.6c-0.6,0.2-1.4,0.2-2.3,0.2
			s-1.7-0.1-2.5-0.3c-0.8-0.2-1.4-0.5-1.9-0.9s-0.9-1-1.2-1.6s-0.4-1.4-0.4-2.4h1.4C305.5,63.9,305.6,64.6,305.9,65.1z"/>
		<path d="M332.6,53.1v1.2h-5.2v13.8h-1.4V54.3h-5.2v-1.2H332.6z"/>
		<path d="M348.6,53.1v1.2h-8.9v5.4h8.4V61h-8.4v5.9h9v1.2h-10.5v-15H348.6z"/>
		<path d="M356.6,53.1l8.7,12.7h0V53.1h1.4v15h-1.6l-8.7-12.7h0v12.7H355v-15H356.6z"/>
	</g>
</g>
</svg>
