<?xml version="1.0" encoding="utf-8"?>
<!-- Generator: Adobe Illustrator 22.1.0, SVG Export Plug-In . SVG Version: 6.00 Build 0)  -->
<svg version="1.1" id="Layer_1" xmlns="http://www.w3.org/2000/svg" xmlns:xlink="http://www.w3.org/1999/xlink" x="0px" y="0px"
	 viewBox="0 0 72 88" style="enable-background:new 0 0 72 88;" xml:space="preserve">
<style type="text/css">
	.st0{fill:#FFFFFF;}
	.st1{fill:#006098;}
</style>
<polygon class="st0" points="30.4,20.8 19.1,14 7.8,20.8 7.8,79.6 66.6,79.6 66.6,20.8 "/>
<path d="M34.4,69.9c-10.3-3.7-21.3-1.5-26.6,0v9.7h58.8v-0.2c-10-0.8-18.2-4-26-7.1C38.5,71.5,36.4,70.7,34.4,69.9z"/>
<g>
	<path class="st1" d="M30.4,20.8L19.1,14L7.8,20.8v28.4c2.8-0.6,6-1,9.4-1.3V29l13.3-8l13.3,8v22.9c1.4,0.5,2.8,1.1,4.2,1.6
		c6.3,2.5,12.1,4.8,18.6,5.5V20.8H30.4z"/>
</g>
</svg>
