<?xml version="1.0" encoding="utf-8"?>
<!-- Generator: Adobe Illustrator 18.1.0, SVG Export Plug-In . SVG Version: 6.00 Build 0)  -->
<svg version="1.1" id="Layer_1" xmlns="http://www.w3.org/2000/svg" xmlns:xlink="http://www.w3.org/1999/xlink" x="0px" y="0px"
	 viewBox="0 0 400 100" enable-background="new 0 0 400 100" xml:space="preserve">
<g>
	<polygon fill="#FFFFFF" points="37.7,20.8 26.4,14 15.1,20.8 15.1,79.6 73.9,79.6 73.9,20.8 	"/>
	<path d="M41.7,69.9c-10.3-3.7-21.3-1.5-26.6,0v9.7h58.8v-0.2c-10-0.8-18.2-4-26-7.1C45.8,71.5,43.8,70.7,41.7,69.9z"/>
	<g>
		<path fill="#006098" d="M37.7,20.8L26.4,14l-11.3,6.8v28.4c2.8-0.6,6-1,9.4-1.3V29l13.3-8l13.3,8v22.9c1.4,0.5,2.8,1.1,4.2,1.6
			c6.3,2.5,12.1,4.8,18.6,5.5V20.8H37.7z"/>
	</g>
	<g>
		<path fill="#006097" d="M115.3,49.7c-2,1.5-4.1,2.6-6.4,3.3c-2.2,0.7-4.7,1.1-7.4,1.1c-2.6,0-4.9-0.4-7.1-1.2
			c-2.2-0.8-4-1.9-5.6-3.4c-1.7-1.6-2.9-3.4-3.8-5.5c-0.9-2.1-1.3-4.4-1.3-6.8c0-5.1,1.7-9.2,5.1-12.3c3.4-3.1,7.9-4.7,13.5-4.7
			c2,0,4.1,0.2,6.1,0.7s4,1.2,6.1,2.2v7.2c-2.2-1.1-4.2-1.9-6.2-2.5c-2-0.5-3.8-0.8-5.5-0.8c-3.3,0-5.9,0.9-7.8,2.7
			c-1.9,1.8-2.8,4.3-2.8,7.4c0,3.1,0.9,5.5,2.7,7.3c1.8,1.8,4.2,2.7,7.2,2.7c0.8,0,1.6-0.1,2.4-0.3c0.8-0.2,1.6-0.4,2.4-0.8v-4.1
			h-4.5V36h12.9V49.7z"/>
		<path fill="#006097" d="M119.4,37.2c0-2.4,0.4-4.7,1.3-6.8c0.9-2.1,2.1-3.9,3.8-5.5c1.7-1.6,3.5-2.7,5.6-3.5
			c2.1-0.8,4.4-1.1,7-1.1c2.6,0,5,0.4,7.1,1.2c2.1,0.8,4,1.9,5.7,3.5c1.7,1.6,3,3.5,3.8,5.5c0.9,2.1,1.3,4.3,1.3,6.8
			c0,2.4-0.4,4.7-1.3,6.7c-0.9,2.1-2.1,3.9-3.8,5.5c-1.7,1.6-3.6,2.7-5.7,3.5c-2.1,0.8-4.5,1.2-7,1.2c-2.6,0-4.9-0.4-7-1.2
			c-2.1-0.8-4-2-5.7-3.5c-1.7-1.6-3-3.4-3.8-5.5C119.8,41.9,119.4,39.6,119.4,37.2z M127.8,37.2c0,2.9,0.9,5.3,2.6,7.2
			c1.8,1.9,4,2.8,6.7,2.8c2.7,0,5-0.9,6.7-2.8c1.8-1.9,2.6-4.3,2.6-7.2c0-2.9-0.9-5.4-2.6-7.2c-1.8-1.9-4-2.8-6.7-2.8
			c-2.7,0-5,0.9-6.7,2.8C128.7,31.8,127.8,34.2,127.8,37.2z"/>
		<path fill="#006097" d="M190.6,20.8v18.8c0,4.6-1.4,8.2-4.1,10.7c-2.7,2.6-6.5,3.9-11.4,3.9c-4.9,0-8.7-1.3-11.4-3.9
			c-2.7-2.6-4.1-6.2-4.1-10.7V20.8h8.2v18.4c0,2.6,0.6,4.6,1.9,6s3.1,2.1,5.4,2.1c2.4,0,4.2-0.7,5.4-2.1s1.9-3.4,1.9-6V20.8H190.6z"
			/>
		<path fill="#006097" d="M206.4,53.8l-13.3-33.1h8.6l6.4,17.9l6.4-17.9h5.5l6.4,17.9l6.3-17.9h8.6L228,53.8h-3.4l-7.4-20.5
			l-7.5,20.5H206.4z"/>
		<path fill="#006097" d="M243.9,53.5V20.8h21.9v6h-13.7v6.7h13.1v6.1h-13.1v7.8h14.1v6.1H243.9z"/>
	</g>
	<g>
		<path d="M270,51v-6.2c1.5,1.7,2.9,2.9,4.3,3.7c1.4,0.8,2.8,1.1,4.3,1.1c1.6,0,2.9-0.4,3.8-1.1c0.9-0.8,1.4-1.8,1.4-3.1
			c0-1.1-0.3-2-0.9-2.8c-0.6-0.8-2.1-2-4.5-3.5c-3.7-2.4-6-4.2-7-5.6c-0.9-1.3-1.4-2.9-1.4-4.7c0-2.5,0.9-4.6,2.7-6.3
			c1.8-1.6,4.1-2.4,7-2.4c1.3,0,2.5,0.2,3.7,0.6c1.2,0.4,2.5,0.9,3.7,1.7v5.3c-1.4-1.2-2.8-2-4-2.5c-1.2-0.5-2.4-0.8-3.7-0.8
			c-1.5,0-2.7,0.4-3.6,1.1c-0.9,0.7-1.4,1.7-1.4,2.8c0,1.6,1.9,3.6,5.8,6l0.7,0.4c3.1,2,5.2,3.7,6.2,5.2c1,1.5,1.5,3.3,1.5,5.5
			c0,2.5-0.9,4.6-2.7,6.2c-1.8,1.6-4.1,2.4-7,2.4c-1.8,0-3.4-0.2-4.8-0.8C272.7,52.9,271.4,52.1,270,51z"/>
		<path d="M302.7,53.5V25h-12v-4.3h28.8V25h-12v28.5H302.7z"/>
		<path d="M318.7,53.5l14.2-32.8h3.4l14.4,32.8h-4.9l-4.2-9.7h-14l-4.2,9.7H318.7z M329.5,39.7h10.2l-5.2-11.8L329.5,39.7z"/>
		<path d="M365.2,20.8c2.4,0,4.5,0.2,6.2,0.7c1.7,0.5,3.3,1.2,4.8,2.2c2.2,1.5,3.9,3.4,5.1,5.8c1.2,2.4,1.8,4.9,1.8,7.8
			c0,2.8-0.6,5.4-1.8,7.8c-1.2,2.4-2.9,4.3-5.1,5.8c-1.4,1-3,1.7-4.8,2.2c-1.8,0.5-3.9,0.7-6.3,0.7h-12V20.8H365.2z M365.2,25.2
			h-7.4v23.9h7.4c4,0,7.2-1.1,9.5-3.2s3.5-5,3.5-8.7c0-3.7-1.2-6.6-3.5-8.8C372.4,26.3,369.3,25.2,365.2,25.2z"/>
	</g>
	<g>
		<path d="M88,65.6h8.7v2.2h-6.1v4.1h5.2V74h-5.2v6H88V65.6z"/>
		<path d="M103.7,65.6h2.6V80h-2.6V65.6z"/>
		<path d="M114.4,65.6h2.6l4.5,8.1l1.5,3.1h0.1c-0.1-0.7-0.1-1.6-0.2-2.4c-0.1-0.9-0.1-1.7-0.1-2.5v-6.2h2.4V80h-2.6l-4.5-8.1
			l-1.5-3.1h-0.1c0.1,0.8,0.1,1.6,0.2,2.4s0.1,1.7,0.1,2.5V80h-2.4V65.6z"/>
		<path d="M140.3,76.1h-4.8l-1.1,3.9h-2.6l4.7-14.4h3l4.7,14.4h-2.7L140.3,76.1z M139.8,74.1l-0.5-1.8c-0.2-0.8-0.4-1.5-0.7-2.4
			c-0.2-0.8-0.4-1.6-0.6-2.4h-0.1c-0.2,0.8-0.4,1.6-0.6,2.4c-0.2,0.8-0.4,1.6-0.7,2.3l-0.5,1.8H139.8z"/>
		<path d="M150.8,65.6h2.6l4.5,8.1l1.5,3.1h0.1c-0.1-0.7-0.1-1.6-0.2-2.4c-0.1-0.9-0.1-1.7-0.1-2.5v-6.2h2.4V80h-2.6l-4.5-8.1
			l-1.5-3.1h-0.1c0.1,0.8,0.1,1.6,0.2,2.4s0.1,1.7,0.1,2.5V80h-2.4V65.6z"/>
		<path d="M169,72.8c0-1.2,0.2-2.2,0.5-3.2s0.8-1.7,1.4-2.4c0.6-0.6,1.3-1.1,2.1-1.5c0.8-0.3,1.7-0.5,2.6-0.5c0.9,0,1.7,0.2,2.4,0.6
			c0.7,0.4,1.3,0.8,1.7,1.3l-1.4,1.6c-0.4-0.4-0.8-0.7-1.2-0.9c-0.4-0.2-0.9-0.3-1.5-0.3c-0.6,0-1.1,0.1-1.6,0.4
			c-0.5,0.2-0.9,0.6-1.3,1c-0.4,0.4-0.6,1-0.8,1.6c-0.2,0.6-0.3,1.4-0.3,2.2c0,1.6,0.4,2.9,1.1,3.9c0.7,0.9,1.7,1.4,2.9,1.4
			c0.6,0,1.2-0.1,1.7-0.4c0.5-0.2,0.9-0.6,1.3-1.1l1.4,1.6c-0.6,0.7-1.3,1.2-2,1.6c-0.7,0.4-1.6,0.5-2.5,0.5c-0.9,0-1.8-0.2-2.6-0.5
			s-1.5-0.8-2.1-1.4c-0.6-0.6-1-1.4-1.4-2.3C169.2,75.1,169,74,169,72.8z"/>
		<path d="M186.9,65.6h2.6V80h-2.6V65.6z"/>
		<path d="M197.7,65.6h8.6v2.2h-6.1v3.7h5.2v2.2h-5.2v4.2h6.3V80h-8.9V65.6z"/>
		<path d="M213.9,65.6h2.6v12.2h6V80h-8.5V65.6z"/>
		<path d="M229.3,65.6h8.6v2.2h-6.1v3.7h5.2v2.2h-5.2v4.2h6.3V80h-8.9V65.6z"/>
		<path d="M255.1,65.6h3.8c2.2,0,3.9,0.6,5.2,1.8c1.2,1.2,1.9,3,1.9,5.3c0,1.2-0.2,2.2-0.5,3.1c-0.3,0.9-0.8,1.7-1.4,2.3
			c-0.6,0.6-1.3,1.1-2.2,1.4c-0.9,0.3-1.8,0.5-2.9,0.5h-4V65.6z M258.8,77.9c1.5,0,2.6-0.4,3.4-1.3c0.8-0.8,1.2-2.2,1.2-3.9
			c0-1.8-0.4-3-1.2-3.9c-0.8-0.8-1.9-1.2-3.4-1.2h-1.1v10.3H258.8z"/>
		<path d="M273.5,65.6h2.6V80h-2.6V65.6z"/>
		<path d="M284.2,65.6h8.6v2.2h-6.1v3.7h5.2v2.2h-5.2v4.2h6.3V80h-8.9V65.6z"/>
		<path d="M300.4,65.6h2.6l4.5,8.1l1.5,3.1h0.1c-0.1-0.7-0.1-1.6-0.2-2.4c-0.1-0.9-0.1-1.7-0.1-2.5v-6.2h2.4V80h-2.6l-4.5-8.1
			l-1.5-3.1h-0.1c0.1,0.8,0.1,1.6,0.2,2.4c0.1,0.8,0.1,1.7,0.1,2.5V80h-2.4V65.6z"/>
		<path d="M319.7,76.4c0.5,0.5,1.1,0.9,1.8,1.2c0.7,0.3,1.3,0.5,2,0.5c0.8,0,1.4-0.2,1.9-0.5c0.4-0.3,0.6-0.8,0.6-1.3
			c0-0.3-0.1-0.5-0.2-0.7c-0.1-0.2-0.3-0.4-0.5-0.5c-0.2-0.2-0.4-0.3-0.7-0.4c-0.3-0.1-0.6-0.3-0.9-0.4l-2-0.9
			c-0.4-0.1-0.7-0.3-1.1-0.5c-0.4-0.2-0.7-0.5-0.9-0.8c-0.3-0.3-0.5-0.7-0.7-1.1c-0.2-0.4-0.3-0.9-0.3-1.4c0-0.6,0.1-1.1,0.4-1.6
			c0.2-0.5,0.6-0.9,1-1.3c0.4-0.4,0.9-0.7,1.5-0.9s1.2-0.3,1.9-0.3c0.9,0,1.7,0.2,2.4,0.5s1.4,0.8,2,1.3l-1.3,1.6
			c-0.5-0.4-0.9-0.7-1.4-0.9c-0.5-0.2-1.1-0.3-1.7-0.3c-0.7,0-1.2,0.2-1.6,0.5s-0.6,0.7-0.6,1.2c0,0.3,0.1,0.5,0.2,0.7
			c0.1,0.2,0.3,0.4,0.5,0.5s0.5,0.3,0.7,0.4c0.3,0.1,0.6,0.2,0.9,0.4l1.9,0.8c0.4,0.2,0.8,0.4,1.2,0.6c0.4,0.2,0.7,0.5,0.9,0.8
			c0.3,0.3,0.5,0.7,0.6,1.1c0.1,0.4,0.2,0.9,0.2,1.4c0,0.6-0.1,1.1-0.4,1.7c-0.2,0.5-0.6,1-1,1.4c-0.4,0.4-1,0.7-1.6,0.9
			c-0.6,0.2-1.4,0.3-2.2,0.3c-1,0-1.9-0.2-2.8-0.5c-0.9-0.4-1.7-0.9-2.4-1.6L319.7,76.4z"/>
		<path d="M338.9,67.7h-4.2v-2.2h10.8v2.2h-4.1V80h-2.6V67.7z"/>
		<path d="M352.5,65.6h8.6v2.2H355v3.7h5.2v2.2H355v4.2h6.3V80h-8.9V65.6z"/>
		<path d="M368.7,65.6h2.6l4.5,8.1l1.5,3.1h0.1c-0.1-0.7-0.1-1.6-0.2-2.4c-0.1-0.9-0.1-1.7-0.1-2.5v-6.2h2.4V80h-2.6l-4.5-8.1
			l-1.5-3.1h-0.1c0.1,0.8,0.1,1.6,0.2,2.4c0.1,0.8,0.1,1.7,0.1,2.5V80h-2.4V65.6z"/>
	</g>
</g>
</svg>
